<mxfile modified="2020-07-30T01:21:58.050Z" host="app.diagrams.net" agent="5.0 (Windows NT 10.0; Win64; x64) AppleWebKit/537.36 (KHTML, like Gecko) Chrome/84.0.4147.105 Safari/537.36" etag="hW6nDrlJiyvQGy-6-oJH" version="13.5.5" type="github">
  <diagram id="f106602c-feb2-e66a-4537-3a34d633f6aa" name="Page-1">
    <mxGraphModel dx="868" dy="482" grid="1" gridSize="10" guides="1" tooltips="1" connect="1" arrows="1" fold="1" page="1" pageScale="1" pageWidth="1169" pageHeight="827" background="#ffffff" math="0" shadow="1">
      <root>
        <mxCell id="0" />
        <mxCell id="1" parent="0" />
        <mxCell id="14" value="&lt;b&gt;Google &lt;/b&gt;Cloud Platform" style="fillColor=#F6F6F6;strokeColor=none;shadow=0;gradientColor=none;fontSize=14;align=left;spacing=10;fontColor=#717171;9E9E9E;verticalAlign=top;spacingTop=-4;fontStyle=0;spacingLeft=40;html=1;" parent="1" vertex="1">
          <mxGeometry x="650" y="110" width="250" height="180" as="geometry" />
        </mxCell>
        <mxCell id="15" value="" style="shape=mxgraph.gcp2.google_cloud_platform;fillColor=#F6F6F6;strokeColor=none;shadow=0;gradientColor=none;" parent="14" vertex="1">
          <mxGeometry width="23" height="20" relative="1" as="geometry">
            <mxPoint x="20" y="10" as="offset" />
          </mxGeometry>
        </mxCell>
        <mxCell id="997" value="Multiple&lt;br&gt;Clients&lt;br&gt;API Requests&lt;br&gt;" style="rounded=1;absoluteArcSize=1;arcSize=2;html=1;strokeColor=none;gradientColor=none;shadow=0;dashed=0;fontSize=12;fontColor=#9E9E9E;align=left;verticalAlign=top;spacing=10;spacingTop=-4;fillColor=#F1F8E9;" parent="1" vertex="1">
          <mxGeometry x="320" y="120" width="90" height="160" as="geometry" />
        </mxCell>
        <mxCell id="818" value="Architecture: Backup" style="fillColor=#4DA1F5;strokeColor=none;shadow=1;gradientColor=none;fontSize=14;align=center;spacingLeft=50;fontColor=#ffffff;html=1;" parent="1" vertex="1">
          <mxGeometry x="260" y="40" width="650" height="40" as="geometry" />
        </mxCell>
        <mxCell id="uW8gHiQGOL0dRUNJCY2i-1036" style="edgeStyle=orthogonalEdgeStyle;rounded=0;orthogonalLoop=1;jettySize=auto;html=1;entryX=0;entryY=0.5;entryDx=0;entryDy=0;" edge="1" parent="1" source="987" target="uW8gHiQGOL0dRUNJCY2i-1033">
          <mxGeometry relative="1" as="geometry" />
        </mxCell>
        <mxCell id="987" value="" style="strokeColor=#dddddd;fillColor=#ffffff;shadow=1;strokeWidth=1;rounded=1;absoluteArcSize=1;arcSize=2;labelPosition=center;verticalLabelPosition=middle;align=center;verticalAlign=bottom;spacingLeft=0;fontColor=#999999;fontSize=12;whiteSpace=wrap;spacingBottom=2;html=1;" parent="1" vertex="1">
          <mxGeometry x="330" y="180" width="70" height="70" as="geometry" />
        </mxCell>
        <mxCell id="988" value="" style="dashed=0;connectable=0;html=1;fillColor=#757575;strokeColor=none;shape=mxgraph.gcp2.laptop;part=1;" parent="987" vertex="1">
          <mxGeometry x="0.5" width="50" height="33" relative="1" as="geometry">
            <mxPoint x="-25" y="18.5" as="offset" />
          </mxGeometry>
        </mxCell>
        <mxCell id="uW8gHiQGOL0dRUNJCY2i-1034" style="edgeStyle=orthogonalEdgeStyle;rounded=0;orthogonalLoop=1;jettySize=auto;html=1;entryX=1;entryY=0.5;entryDx=0;entryDy=0;" edge="1" parent="1" source="uW8gHiQGOL0dRUNJCY2i-1001" target="uW8gHiQGOL0dRUNJCY2i-1033">
          <mxGeometry relative="1" as="geometry" />
        </mxCell>
        <mxCell id="uW8gHiQGOL0dRUNJCY2i-1001" value="" style="strokeColor=#dddddd;shadow=1;strokeWidth=1;rounded=1;absoluteArcSize=1;arcSize=2;" vertex="1" parent="1">
          <mxGeometry x="720" y="164.5" width="110" height="60" as="geometry" />
        </mxCell>
        <mxCell id="uW8gHiQGOL0dRUNJCY2i-1002" value="Compute&#xa;Engine" style="dashed=0;connectable=0;html=1;fillColor=#5184F3;strokeColor=none;shape=mxgraph.gcp2.hexIcon;prIcon=compute_engine;part=1;labelPosition=right;verticalLabelPosition=middle;align=left;verticalAlign=middle;spacingLeft=5;fontColor=#999999;fontSize=12;" vertex="1" parent="uW8gHiQGOL0dRUNJCY2i-1001">
          <mxGeometry y="0.5" width="44" height="39" relative="1" as="geometry">
            <mxPoint x="5" y="-19.5" as="offset" />
          </mxGeometry>
        </mxCell>
        <mxCell id="uW8gHiQGOL0dRUNJCY2i-1037" style="edgeStyle=orthogonalEdgeStyle;rounded=0;orthogonalLoop=1;jettySize=auto;html=1;entryX=0;entryY=0.5;entryDx=0;entryDy=0;" edge="1" parent="1" source="uW8gHiQGOL0dRUNJCY2i-1033" target="uW8gHiQGOL0dRUNJCY2i-1001">
          <mxGeometry relative="1" as="geometry" />
        </mxCell>
        <mxCell id="uW8gHiQGOL0dRUNJCY2i-1033" value="" style="shape=image;imageAspect=0;aspect=fixed;verticalLabelPosition=bottom;verticalAlign=top;image=data:image/png,iVBORw0KGgoAAAANSUhEUgAAAH0AAAA4CAIAAABfd2CtAAAABGdBTUEAALGPC/xhBQAAAAlwSFlzAAAOwwAADsMBx2+oZAAABcVJREFUeF7tmr9P6zoUx+8/XTEgVahCCHUoHSpgbDNUAqFKDKAKVdUbEAvciqFCHd7b+FF1YOgAYuJ97XPinMRJmqRpgmg+w5Vj+ziXj50Tu+2f74oy+PNfRYGwdfLOxYoNU3kvh8p7OUD1PxqUK+/FUXkvh8p7OVTey2Ej3p+fnyeTCQa9ubkZjUZ3d3ez2Wy5XHJzRb7eHx8fHcfZ3d2tRdBqtYbD4WKx4IAtJh/vWNGHh4dsNwH9fn8+n3PwVrKud6SU4+Nj1pkSpCAeZftYy/vDwwMrzEq32/36+uLhtons3m9vb1neenQ6nY+PDx50NW9X7T1D+/qNq9fnb29vrzfhi42T0fv6K11yenrK465gAjd7jpETuFyPn+8dOZ2FaWX/ZuX+/p5HqdUuLi549GgmDlb4lW+F5yjr53uXL9Lkj0gomDYeqFbDNpRrw1Gru/eXL8LQy18ju6nZIsSTYSp7jqtben8xyax99UJVOZPaO7aM7ElDIUg7MGjAJSrRhHMTld/f31GWoAb16MwD1WrNZhM1kSgXMRZU3ud0rwxyz7drFaRr1ayIDqSY3hYB72KCN/YQpPYe2KdTCDzytQaXphJmUUY3ajJQoPQOMKmoDMfv3VvF5MjXauZATIaYAxVr1r4xKwteNlMjxD5kGUnnHamADbkEvB8dHZ2cnCBxoxL/onx5eYnyy8sLyqBer1PPUO/tdhuVEYTmGbfStzCNbl+I6903GbZ31c2P1zk/0nl3HIcNuUjvkE7dYphOpzIw4B3gpU09bULeq8bsptb7pkjn3f7sRXqnlPL5+YnKUKhJBtrex+OxulM4yrJ4PSqtQK9ooVgZzCm/6xeseWJyBH9+Uu9y+2igEJlSjFkbNJmEgwI6295xglU3i0Zmdv/C1LOikaa8/iH7mfbVtavb8866iU0kGZDC+2QyYTcCO4S8k1xDVGfb+4pdTe4UklVsUnhHJ3YjoBBsClF4fX1FGQXUw7UOUlANdTZZiJps70hl1LQ5VPLhta/zjHgOCgMGkno3mxYJhdhbxijvpkxNtndATZvEy0ilLHYAD0m9j0YjFiOgkBy97+zsUNPvBh6Seg+cVAk7hMzCOwqGqM6290ajwW2/GqhI6n02m7EbgR1iLNsk8d7pdLjtV5PC+3K5ZDcCCiF9Ms+EgibTqocM8T4YDKjJQiRlQ0h2FrvvLFh3Cd5CdnD3nUBsPZnY1zU8JPUOWq0W63GhEOk9npXeoz+VTCg0B+8i3L/hCRyj1JbfvfQdmIEaJ2bvn877cDhkPS7Se71en06nqKHPGuXm0mwfz87OKFANZ3nHSzX6a79SvAcPtwGV3nk46F0elUOAihTeF4sFG3KhkIA+bG9QaW9yJGo4K/D8/Jzqw4gVqpeewul53cyz3+71hLLQE6xLtHfLrMJUbtQ76Pf7LEmTr/eYD8XISABXkCdL/bVcDnxiw2WhI2T9Wt5FnvEWvsTtH/Su6q3BPVJ7n8/nLEmTJCQG6X3VV30BIwKfkVARRrEqeIMgMO61qTEdVnv3k+N7lZAHKPo6KRtI+gcHBzTO/v7+ql8VRHr3P9GuWZ8m493SGlQZeRc7kyhMZWhrNFm8g263S74A1mw2jHTw9PTEQ0cSbSTzeg8h+i7eIB7elBfjHbsOHHDY2drEfb3nEWNENbERNQfUTWjSlVSWD4d6wYblmciJUXJFq3evorwDpAWsWTa3BsmkA2XEwl3m2ohCb12EC41z5c0B6Wai83Uk8r8hwgvzTuBlyP7Sg5yeIL3kwsr0UjTregc4YTabTXaZGExYmp/nZQAL012AKiGkWIwFkIN3Aumi3W6z1GhwIsXhKHafnhu0lyd+1GIHuXknIHQ8HmO3gyeAvgSH6EajgZfwYDDAk7Gdv/61ydl7RUIq7+VQeS+Hyns5VN7LofJeDpX3cgh6rygMz7ueCfV7vIrCqLyXQ+W9HDzvFYXy/f0/bULAB47q6ukAAAAASUVORK5CYII=;" vertex="1" parent="1">
          <mxGeometry x="490" y="180" width="125" height="56" as="geometry" />
        </mxCell>
        <mxCell id="uW8gHiQGOL0dRUNJCY2i-1038" value="Germán Andrés Ortiz Martínez" style="text;html=1;strokeColor=none;fillColor=none;align=center;verticalAlign=middle;whiteSpace=wrap;rounded=0;sketch=0;fontSize=19;" vertex="1" parent="1">
          <mxGeometry x="440" y="290" width="180" height="10" as="geometry" />
        </mxCell>
      </root>
    </mxGraphModel>
  </diagram>
</mxfile>
